HIERARCHY
ROOT pelvis
{
	OFFSET 0.000000 0.000000 0.000000
	CHANNELS 6 Xposition Yposition Zposition Xrotation Yrotation Zrotation
	JOINT l_hip
	{
		OFFSET 0.195211 -0.245059 -0.022011
		CHANNELS 3 Xrotation Yrotation Zrotation
		JOINT l_knee
		{
			OFFSET 0.083896 -0.996307 -0.018298
			CHANNELS 3 Xrotation Yrotation Zrotation
			JOINT l_ankle
			{
				OFFSET -0.031606 -1.048662 -0.119000
				CHANNELS 3 Xrotation Yrotation Zrotation
				JOINT l_foot
				{
					OFFSET 0.063841 -0.149483 0.312863
					CHANNELS 3 Xrotation Yrotation Zrotation
					End Site
					{
						OFFSET 0.000000 0.000000 0.000000
					}
				}
			}
		}
	}
	JOINT r_hip
	{
		OFFSET -0.188785 -0.243354 -0.013119
		CHANNELS 3 Xrotation Yrotation Zrotation
		JOINT r_knee
		{
			OFFSET -0.098896 -1.013926 -0.025127
			CHANNELS 3 Xrotation Yrotation Zrotation
			JOINT r_ankle
			{
				OFFSET 0.038376 -1.049454 -0.114596
				CHANNELS 3 Xrotation Yrotation Zrotation
				JOINT r_foot
				{
					OFFSET -0.060300 -0.126955 0.322518
					CHANNELS 3 Xrotation Yrotation Zrotation
					End Site
					{
						OFFSET 0.000000 0.000000 0.000000
					}
				}
			}
		}
	}
	JOINT spine1
	{
		OFFSET -0.006861 0.282462 -0.060688
		CHANNELS 3 Xrotation Yrotation Zrotation
		JOINT spine2
		{
			OFFSET 0.009796 0.349212 -0.004686
			CHANNELS 3 Xrotation Yrotation Zrotation
			JOINT spine3
			{
				OFFSET 0.005545 0.134239 0.076232
				CHANNELS 3 Xrotation Yrotation Zrotation
				JOINT neck
				{
					OFFSET -0.005369 0.569656 -0.136135
					CHANNELS 3 Xrotation Yrotation Zrotation
					JOINT head
					{
						OFFSET 0.009621 0.170484 0.137338
						CHANNELS 3 Xrotation Yrotation Zrotation
						End Site
						{
							OFFSET 0.000000 0.000000 0.000000
						}
					}
				}
				JOINT l_collar
				{
					OFFSET 0.205981 0.322192 -0.100872
					CHANNELS 3 Xrotation Yrotation Zrotation
					JOINT l_shoulder
					{
						OFFSET 0.233388 0.086823 -0.019950
						CHANNELS 3 Xrotation Yrotation Zrotation
						JOINT l_elbow
						{
							OFFSET 0.687295 -0.032736 -0.075278
							CHANNELS 3 Xrotation Yrotation Zrotation
							JOINT l_wrist
							{
								OFFSET 0.651109 0.024639 0.000120
								CHANNELS 3 Xrotation Yrotation Zrotation
								JOINT l_hand
								{
									OFFSET 0.217934 -0.026487 -0.036124
									CHANNELS 3 Xrotation Yrotation Zrotation
									End Site
									{
										OFFSET 0.000000 0.000000 0.000000
									}
								}
							}
						}
					}
				}
				JOINT r_collar
				{
					OFFSET -0.210726 0.316244 -0.114374
					CHANNELS 3 Xrotation Yrotation Zrotation
					JOINT r_shoulder
					{
						OFFSET -0.244017 0.089684 -0.026814
						CHANNELS 3 Xrotation Yrotation Zrotation
						JOINT r_elbow
						{
							OFFSET -0.672913 -0.035979 -0.055153
							CHANNELS 3 Xrotation Yrotation Zrotation
							JOINT r_wrist
							{
								OFFSET -0.670689 0.023586 -0.009661
								CHANNELS 3 Xrotation Yrotation Zrotation
								JOINT r_hand
								{
									OFFSET -0.219937 -0.019827 -0.028502
									CHANNELS 3 Xrotation Yrotation Zrotation
									End Site
									{
										OFFSET 0.000000 0.000000 0.000000
									}
								}
							}
						}
					}
				}
			}
		}
	}
}
MOTION
Frames: 11
Frame Time: 0.016667
0.000000 0.000000 0.000000 0.000000 0.000000 0.000000 -24.458519 -3.107979 2.233934 37.502501 -2.925914 -2.937552 0.000000 0.000000 0.000000 0.000000 0.000000 0.000000 -2.761502 -4.424903 -0.082563 17.142843 4.507273 0.731532 0.000000 0.000000 0.000000 0.000000 0.000000 0.000000 22.508215 9.245370 -2.928506 8.434086 1.213635 -6.636984 1.003831 4.831674 -3.221778 -17.347829 -16.002136 -1.002627 -8.134129 -8.169977 10.877343 3.454102 3.519025 -19.679976 8.760680 -2.706047 -53.496292 8.222345 -46.641832 13.939124 0.000000 0.000000 0.000000 0.000000 0.000000 0.000000 2.157982 25.820216 18.383174 -16.314312 31.124478 43.858515 13.447368 16.596094 -3.606044 0.000000 0.000000 0.000000 0.000000 0.000000 0.000000 
0.000000 0.000000 0.000000 0.000000 0.000000 0.000000 -23.932895 -3.010177 3.094618 37.787289 -3.241806 -2.575879 0.000000 0.000000 0.000000 0.000000 0.000000 0.000000 -2.950571 -4.593897 -0.411416 17.268197 4.495531 0.825879 0.000000 0.000000 0.000000 0.000000 0.000000 0.000000 22.360455 8.989251 -2.891721 8.482009 1.136059 -6.493300 1.094323 4.668868 -3.173917 -17.435601 -15.820618 -0.908626 -8.240888 -8.088942 10.779530 3.633715 3.560793 -19.815901 8.710212 -2.326558 -53.454840 7.843072 -46.460335 13.601150 0.000000 0.000000 0.000000 0.000000 0.000000 0.000000 2.288976 25.255910 18.330629 -16.081512 30.164372 43.345172 13.177238 15.944395 -3.459458 0.000000 0.000000 0.000000 0.000000 0.000000 0.000000 
0.000000 0.000000 0.000000 0.000000 0.000000 0.000000 -23.420179 -2.945083 3.933546 38.035745 -3.585522 -2.169558 0.000000 0.000000 0.000000 0.000000 0.000000 0.000000 -3.149198 -4.754130 -0.740970 17.414982 4.483508 0.918377 0.000000 0.000000 0.000000 0.000000 0.000000 0.000000 22.213218 8.750872 -2.847444 8.532719 1.070687 -6.351734 1.166685 4.514719 -3.122406 -17.513410 -15.667241 -0.835820 -8.333116 -8.031916 10.687651 3.788474 3.581834 -19.951916 8.672207 -1.988112 -53.414139 7.541491 -46.304093 13.299186 0.000000 0.000000 0.000000 0.000000 0.000000 0.000000 2.402812 24.722546 18.277818 -15.835521 29.233427 42.816356 12.957748 15.394575 -3.317744 0.000000 0.000000 0.000000 0.000000 0.000000 0.000000 
0.000000 0.000000 0.000000 0.000000 0.000000 0.000000 -22.925922 -2.920339 4.739998 38.257840 -3.966545 -1.719131 0.000000 0.000000 0.000000 0.000000 0.000000 0.000000 -3.358227 -4.909797 -1.077184 17.577217 4.469740 1.012224 0.000000 0.000000 0.000000 0.000000 0.000000 0.000000 22.062002 8.531287 -2.796281 8.583872 1.016852 -6.212531 1.221745 4.370241 -3.068051 -17.582417 -15.539374 -0.785612 -8.411470 -7.992585 10.602746 3.918480 3.590115 -20.085895 8.646803 -1.687692 -53.375858 7.331359 -46.183159 13.049665 0.000000 0.000000 0.000000 0.000000 0.000000 0.000000 2.502676 24.218187 18.225708 -15.577197 28.336067 42.282585 12.808989 14.941665 -3.191264 0.000000 0.000000 0.000000 0.000000 0.000000 0.000000 
0.000000 0.000000 0.000000 0.000000 0.000000 0.000000 -22.453650 -2.941451 5.506525 38.459692 -4.391715 -1.224421 0.000000 0.000000 0.000000 0.000000 0.000000 0.000000 -3.579509 -5.063331 -1.424040 17.749737 4.452696 1.109806 0.000000 0.000000 0.000000 0.000000 0.000000 0.000000 21.903401 8.330916 -2.740434 8.631438 0.974156 -6.074319 1.261884 4.235902 -3.010293 -17.643271 -15.433486 -0.757919 -8.479668 -7.965467 10.528255 4.025484 3.592713 -20.215841 8.634523 -1.421015 -53.345118 7.214829 -46.108175 12.861012 0.000000 0.000000 0.000000 0.000000 0.000000 0.000000 2.590776 23.740150 18.175542 -15.311928 27.473543 41.758577 12.731529 14.581829 -3.088738 0.000000 0.000000 0.000000 0.000000 0.000000 0.000000 
0.000000 0.000000 0.000000 0.000000 0.000000 0.000000 -22.002205 -3.008849 6.230927 38.642626 -4.862906 -0.686437 0.000000 0.000000 0.000000 0.000000 0.000000 0.000000 -3.812354 -5.213646 -1.781593 17.927763 4.431484 1.210560 0.000000 0.000000 0.000000 0.000000 0.000000 0.000000 21.737935 8.149435 -2.683018 8.670066 0.942835 -5.934520 1.291190 4.111922 -2.947597 -17.694287 -15.345487 -0.750224 -8.545452 -7.947881 10.468614 4.112592 3.595280 -20.339400 8.635053 -1.185452 -53.327218 7.190286 -46.086545 12.734535 0.000000 0.000000 0.000000 0.000000 0.000000 0.000000 2.668026 23.285645 18.128435 -15.049771 26.646224 41.260789 12.709107 14.310140 -3.015803 0.000000 0.000000 0.000000 0.000000 0.000000 0.000000 
0.000000 0.000000 0.000000 0.000000 0.000000 0.000000 -21.565940 -3.116302 6.917236 38.804317 -5.376301 -0.109347 0.000000 0.000000 0.000000 0.000000 0.000000 0.000000 -4.051116 -5.356933 -2.145735 18.104435 4.407256 1.310617 0.000000 0.000000 0.000000 0.000000 0.000000 0.000000 21.570200 7.986082 -2.626946 8.694439 0.923472 -5.790252 1.315037 3.998627 -2.878102 -17.735111 -15.270255 -0.757327 -8.615345 -7.939310 10.427692 4.184731 3.600769 -20.453700 8.645394 -0.980492 -53.326024 7.258458 -46.120456 12.668418 0.000000 0.000000 0.000000 0.000000 0.000000 0.000000 2.736181 22.853740 18.085676 -14.804875 25.854004 40.803401 12.716713 14.119436 -2.977425 0.000000 0.000000 0.000000 0.000000 0.000000 0.000000 
0.000000 0.000000 0.000000 0.000000 0.000000 0.000000 -21.137231 -3.250792 7.574814 38.941011 -5.918765 0.497902 0.000000 0.000000 0.000000 0.000000 0.000000 0.000000 -4.286345 -5.489049 -2.511231 18.271896 4.382078 1.405344 0.000000 0.000000 0.000000 0.000000 0.000000 0.000000 21.405169 7.839774 -2.574114 8.702344 0.915953 -5.638569 1.338479 3.896247 -2.800368 -17.766778 -15.201254 -0.771780 -8.691775 -7.941206 10.406838 4.248195 3.608375 -20.555672 8.660445 -0.807207 -53.343506 7.424885 -46.205536 12.661349 0.000000 0.000000 0.000000 0.000000 0.000000 0.000000 2.797937 22.445674 18.049742 -14.593665 25.095708 40.398439 12.722684 14.002332 -2.979826 0.000000 0.000000 0.000000 0.000000 0.000000 0.000000 
0.000000 0.000000 0.000000 0.000000 0.000000 0.000000 -20.709611 -3.393372 8.216474 39.049188 -6.465657 1.120756 0.000000 0.000000 0.000000 0.000000 0.000000 0.000000 -4.507910 -5.607494 -2.874294 18.421769 4.358075 1.491335 0.000000 0.000000 0.000000 0.000000 0.000000 0.000000 21.246128 7.709671 -2.525256 8.697436 0.919390 -5.477153 1.363239 3.804933 -2.713897 -17.791614 -15.130435 -0.784452 -8.773177 -7.957599 10.403459 4.308743 3.614285 -20.643463 8.674390 -0.668430 -53.378599 7.694400 -46.331522 12.711969 0.000000 0.000000 0.000000 0.000000 0.000000 0.000000 2.855882 22.064264 18.025094 -14.430136 24.369102 40.053947 12.688839 13.952157 -3.030079 0.000000 0.000000 0.000000 0.000000 0.000000 0.000000 
0.000000 0.000000 0.000000 0.000000 0.000000 0.000000 -20.280518 -3.521864 8.856234 39.127758 -6.983620 1.740387 0.000000 0.000000 0.000000 0.000000 0.000000 0.000000 -4.707657 -5.712280 -3.233156 18.546809 4.336632 1.567085 0.000000 0.000000 0.000000 0.000000 0.000000 0.000000 21.093166 7.595225 -2.479787 8.687881 0.932048 -5.304429 1.387687 3.724550 -2.618968 -17.812205 -15.048161 -0.786456 -8.855374 -7.993016 10.411030 4.370515 3.612483 -20.716970 8.681528 -0.566622 -53.428841 8.066523 -46.483504 12.819934 0.000000 0.000000 0.000000 0.000000 0.000000 0.000000 2.911614 21.712643 18.017718 -14.325078 23.669922 39.776041 12.570377 13.962613 -3.136133 0.000000 0.000000 0.000000 0.000000 0.000000 0.000000 
0.000000 0.000000 0.000000 0.000000 0.000000 0.000000 -19.854075 -3.615708 9.505287 39.179922 -7.436033 2.337057 0.000000 0.000000 0.000000 0.000000 0.000000 0.000000 -4.882534 -5.806049 -3.588821 18.642224 4.318191 1.633221 0.000000 0.000000 0.000000 0.000000 0.000000 0.000000 20.942329 7.496224 -2.435964 8.682961 0.951041 -5.119506 1.408575 3.654472 -2.516559 -17.832676 -14.945311 -0.772870 -8.930999 -8.049198 10.422326 4.436831 3.596484 -20.778744 8.677148 -0.501271 -53.490797 8.532857 -46.647136 12.984786 0.000000 0.000000 0.000000 0.000000 0.000000 0.000000 2.965372 21.391830 18.035085 -14.286407 22.990122 39.570034 12.317616 14.033139 -3.305495 0.000000 0.000000 0.000000 0.000000 0.000000 0.000000 
